<svg width="13" height="13" viewBox="0 0 13 13" fill="none" xmlns="http://www.w3.org/2000/svg">
<g clip-path="url(#clip0_1_569)">
<path d="M2.32201 3.79819C3.12761 3.79819 3.78068 3.14512 3.78068 2.33952C3.78068 1.53392 3.12761 0.880859 2.32201 0.880859C1.51641 0.880859 0.863342 1.53392 0.863342 2.33952C0.863342 3.14512 1.51641 3.79819 2.32201 3.79819Z" fill="#F3F3F2"/>
<path d="M5.15801 4.90312V12.9958H7.67068V8.99379C7.67068 7.93779 7.86936 6.91512 9.17869 6.91512C10.47 6.91512 10.486 8.12247 10.486 9.06047V12.9965H13V8.55846C13 6.37846 12.5307 4.70312 9.98269 4.70312C8.75936 4.70312 7.93935 5.37446 7.60401 6.00979H7.57001V4.90312H5.15801ZM1.06335 4.90312H3.58001V12.9958H1.06335V4.90312Z" fill="#F3F3F2"/>
</g>
<defs>
<clipPath id="clip0_1_569">
<rect width="13" height="13" fill="white"/>
</clipPath>
</defs>
</svg>
