<svg width="16" height="16" viewBox="0 0 16 16" fill="none" xmlns="http://www.w3.org/2000/svg">
<g clip-path="url(#clip0_1_79)">
<path d="M3.32201 4.79801C4.12761 4.79801 4.78068 4.14494 4.78068 3.33934C4.78068 2.53374 4.12761 1.88068 3.32201 1.88068C2.51641 1.88068 1.86334 2.53374 1.86334 3.33934C1.86334 4.14494 2.51641 4.79801 3.32201 4.79801Z" fill="#22262F"/>
<path d="M6.15801 5.90337V13.996H8.67068V9.99404C8.67068 8.93804 8.86936 7.91537 10.1787 7.91537C11.47 7.91537 11.486 9.12271 11.486 10.0607V13.9967H14V9.55871C14 7.37871 13.5307 5.70337 10.9827 5.70337C9.75936 5.70337 8.93935 6.37471 8.60401 7.01004H8.57001V5.90337H6.15801ZM2.06335 5.90337H4.58001V13.996H2.06335V5.90337Z" fill="#22262F"/>
</g>
<defs>
<clipPath id="clip0_1_79">
<rect width="13" height="13" fill="white" transform="translate(1 1)"/>
</clipPath>
</defs>
</svg>
