<svg width="16" height="16" viewBox="0 0 16 16" fill="none" xmlns="http://www.w3.org/2000/svg">
<path d="M14.305 1.63676C14.2275 1.56987 14.1333 1.52538 14.0324 1.50808C13.9315 1.49079 13.8278 1.50136 13.7325 1.53864L1.06622 6.49551C0.886715 6.56531 0.73474 6.69154 0.633178 6.85519C0.531616 7.01884 0.485964 7.21105 0.503097 7.40289C0.520229 7.59473 0.599218 7.77582 0.728171 7.91888C0.857124 8.06194 1.02906 8.15925 1.2181 8.19614L4.49997 8.84051V12.4999C4.49933 12.6992 4.55856 12.8941 4.67 13.0594C4.78144 13.2247 4.93994 13.3526 5.12497 13.4268C5.30972 13.5022 5.51289 13.5203 5.70806 13.4787C5.90324 13.4372 6.08139 13.3378 6.21935 13.1936L7.80185 11.5524L10.3125 13.7499C10.4936 13.9106 10.7272 13.9995 10.9693 13.9999C11.0755 13.9998 11.1809 13.9831 11.2818 13.9505C11.4468 13.8982 11.5952 13.8035 11.7122 13.676C11.8292 13.5485 11.9108 13.3925 11.9487 13.2236L14.4856 2.18739C14.5083 2.08785 14.5035 1.98402 14.4717 1.88702C14.4398 1.79002 14.3822 1.70351 14.305 1.63676ZM10.4837 3.88676L4.88435 7.89676L1.78435 7.28864L10.4837 3.88676ZM5.49997 12.4999V9.53239L7.04935 10.8911L5.49997 12.4999ZM10.9706 12.9999L5.8031 8.46864L13.2406 3.13801L10.9706 12.9999Z" fill="white"/>
</svg>
