<svg width="16" height="16" viewBox="0 0 16 16" fill="none" xmlns="http://www.w3.org/2000/svg">
<path d="M14.305 1.63688C14.2275 1.56999 14.1333 1.5255 14.0324 1.50821C13.9315 1.49092 13.8278 1.50148 13.7325 1.53876L1.06622 6.49563C0.886715 6.56543 0.73474 6.69166 0.633178 6.85531C0.531616 7.01896 0.485964 7.21118 0.503097 7.40302C0.520229 7.59486 0.599218 7.77594 0.728171 7.919C0.857124 8.06207 1.02906 8.15937 1.2181 8.19626L4.49997 8.84063V12.5C4.49933 12.6993 4.55856 12.8943 4.67 13.0595C4.78144 13.2248 4.93994 13.3528 5.12497 13.4269C5.30972 13.5023 5.51289 13.5204 5.70806 13.4789C5.90324 13.4373 6.08139 13.3379 6.21935 13.1938L7.80185 11.5525L10.3125 13.75C10.4936 13.9107 10.7272 13.9996 10.9693 14C11.0755 13.9999 11.1809 13.9833 11.2818 13.9506C11.4468 13.8983 11.5952 13.8036 11.7122 13.6761C11.8292 13.5486 11.9108 13.3926 11.9487 13.2238L14.4856 2.18751C14.5083 2.08798 14.5035 1.98414 14.4717 1.88715C14.4398 1.79015 14.3822 1.70363 14.305 1.63688ZM10.4837 3.88688L4.88435 7.89688L1.78435 7.28876L10.4837 3.88688ZM5.49997 12.5V9.53251L7.04935 10.8913L5.49997 12.5ZM10.9706 13L5.8031 8.46876L13.2406 3.13813L10.9706 13Z" fill="black"/>
</svg>
