<svg width="15" height="15" viewBox="0 0 15 15" fill="none" xmlns="http://www.w3.org/2000/svg">
<path d="M7.3125 0C5.86623 0 4.45243 0.428871 3.2499 1.23238C2.04736 2.03589 1.1101 3.17794 0.556634 4.51413C0.00316839 5.85031 -0.141643 7.32061 0.140511 8.7391C0.422665 10.1576 1.11911 11.4605 2.14178 12.4832C3.16446 13.5059 4.46742 14.2023 5.88591 14.4845C7.30439 14.7666 8.77469 14.6218 10.1109 14.0684C11.4471 13.5149 12.5891 12.5776 13.3926 11.3751C14.1961 10.1726 14.625 8.75878 14.625 7.3125C14.623 5.37373 13.8519 3.51496 12.481 2.14404C11.11 0.773127 9.25127 0.00204737 7.3125 0ZM13.474 6.75H10.6734C10.5743 4.74891 9.95133 2.84977 8.90719 1.33594C10.1301 1.66425 11.2232 2.35902 12.0395 3.32687C12.8559 4.29472 13.3565 5.48927 13.474 6.75ZM7.3125 13.4923C5.99555 12.067 5.1968 10.047 5.07868 7.875H9.54633C9.42821 10.0455 8.62946 12.067 7.3125 13.4923ZM5.07868 6.75C5.1968 4.57945 5.99274 2.55797 7.3125 1.13273C8.62946 2.55797 9.42821 4.57805 9.54633 6.75H5.07868ZM5.71782 1.33594C4.67368 2.84977 4.05071 4.74891 3.95157 6.75H1.15102C1.2685 5.48927 1.76907 4.29472 2.58546 3.32687C3.40185 2.35902 4.49493 1.66425 5.71782 1.33594ZM1.15102 7.875H3.95157C4.05071 9.87609 4.67368 11.7752 5.71782 13.2891C4.49493 12.9608 3.40185 12.266 2.58546 11.2981C1.76907 10.3303 1.2685 9.13573 1.15102 7.875ZM8.90719 13.2891C9.95133 11.7731 10.5743 9.87398 10.6734 7.875H13.474C13.3565 9.13573 12.8559 10.3303 12.0395 11.2981C11.2232 12.266 10.1301 12.9608 8.90719 13.2891Z" fill="#4A4A45"/>
</svg>
